<svg xmlns="http://www.w3.org/2000/svg" xmlns:xlink="http://www.w3.org/1999/xlink" width="32" height="32" viewBox="0 0 32 32"><defs><clipPath id="b"><rect width="32" height="32"/></clipPath></defs><g id="a" clip-path="url(#b)"><g transform="translate(-484 -329)"><rect width="32" height="32" transform="translate(484 329)" fill="none"/><g transform="translate(488.8 333.8)"><path d="M11,0a11,11,0,0,0,0,22h1A11,11,0,0,0,12,0H11m0-2h1A13,13,0,0,1,25,11,13,13,0,0,1,12,24H11A13,13,0,0,1-2,11,13,13,0,0,1,11-2Z" transform="translate(0.2 0.2)" fill="#4780eb"/><text transform="translate(3.7 17.2)" fill="#4780eb" font-size="15" font-family="Poppins-Black, Poppins" font-weight="800"><tspan x="0" y="0">LJ</tspan></text></g></g></g></svg>